<svg width="1110" height="257" viewBox="0 0 1110 257" fill="none" xmlns="http://www.w3.org/2000/svg">
<path d="M293.781 50.8103C332.151 50.8103 369.651 73.4303 369.651 123.82C369.651 127.82 369.431 134.02 368.991 138.38C368.891 139.38 368.041 140.14 367.031 140.14H259.411C262.561 158.18 275.161 169.92 294.911 169.92C308.011 169.92 316.371 162.68 320.921 154.02C321.491 152.93 322.731 152.36 323.931 152.62L364.171 161.39C365.401 161.66 366.051 162.98 365.551 164.13C356.141 185.44 334.741 206.56 294.631 206.56C241.951 206.56 213.891 172.2 213.891 128.68C213.891 85.1603 243.091 50.8003 293.771 50.8003L293.781 50.8103ZM324.701 112.66C322.701 95.4803 311.241 86.3203 294.641 86.3203C272.881 86.3203 263.721 97.4903 260.281 112.66H324.701Z" fill="#191919"/>
<path d="M383.4 200.02V57.3703C383.4 56.2803 384.28 55.4003 385.37 55.4003H427.24C428.33 55.4003 429.21 56.2803 429.21 57.3703V74.3003C439.23 58.5503 454.12 50.8203 473.3 50.8203C501.36 50.8203 525.41 70.0003 525.41 112.95V200.02C525.41 201.11 524.53 201.99 523.44 201.99H481.57C480.48 201.99 479.6 201.11 479.6 200.02V119.53C479.6 100.35 469.58 89.7503 454.98 89.7503C439.23 89.7503 429.21 100.06 429.21 123.54V200.02C429.21 201.11 428.33 201.99 427.24 201.99H385.37C384.28 201.99 383.4 201.11 383.4 200.02Z" fill="#191919"/>
<path d="M528.22 55.3901H572.63C573.5 55.3901 574.26 55.9601 574.52 56.7901L607.88 167.34L641.24 56.7901C641.49 55.9601 642.26 55.3901 643.13 55.3901H687.54C688.9 55.3901 689.86 56.7401 689.39 58.0301L638.31 200.16C637.92 201.25 636.88 201.99 635.71 201.99H580.04C578.88 201.99 577.84 201.26 577.44 200.16L526.36 58.0301C525.9 56.7501 526.85 55.3901 528.21 55.3901H528.22Z" fill="#191919"/>
<path d="M786.541 200.02V177.65C779.381 192.54 763.351 206.57 738.441 206.57C709.521 206.57 688.051 188.25 688.051 162.48C688.051 135.28 706.091 114.95 745.601 114.95H768.511C781.111 114.95 784.541 105.79 783.401 99.7803C781.681 89.4703 772.521 84.0303 759.641 84.0303C743.371 84.0303 733.521 93.0203 732.281 105.4C732.171 106.53 731.131 107.34 730.011 107.15L691.171 100.68C690.091 100.5 689.351 99.4703 689.551 98.4003C695.881 64.6103 727.921 50.8203 760.801 50.8203C793.681 50.8203 830.091 58.8403 830.091 119.54V200.03C830.091 201.12 829.211 202 828.121 202H788.541C787.451 202 786.571 201.12 786.571 200.03L786.541 200.02ZM751.901 173.36C770.221 173.36 782.821 159.62 784.251 142.44H756.481C739.591 142.44 733.571 149.31 733.861 158.76C734.151 168.78 742.161 173.36 751.901 173.36Z" fill="#191919"/>
<path d="M836.94 90.0702V57.3602C836.94 56.2702 837.82 55.3902 838.91 55.3902H855.26C862.85 55.3902 869 49.2401 869 41.6501V16.1302C869 15.0402 869.88 14.1602 870.97 14.1602H908.26C909.35 14.1602 910.23 15.0402 910.23 16.1302V55.3902H940.331C941.421 55.3902 942.3 56.2702 942.3 57.3602V90.0702C942.3 91.1602 941.421 92.0401 940.331 92.0401H910.23V145.01C910.23 162.27 924.9 169.3 940.22 163.86C941.24 163.5 942.3 164.27 942.3 165.34V199.85C942.3 201.12 941.441 202.24 940.211 202.53C936.251 203.47 930.76 204.28 924.27 204.28C888.77 204.28 864.43 192.25 864.43 140.72V92.0502H838.91C837.82 92.0502 836.94 91.1702 836.94 90.0802V90.0702Z" fill="#191919"/>
<path d="M1109.52 128.69C1109.52 171.64 1079.17 206.57 1029.35 206.57C979.531 206.57 949.181 171.64 949.181 128.69C949.181 85.7401 979.531 50.8101 1029.35 50.8101C1079.17 50.8101 1109.52 85.7401 1109.52 128.69ZM1063.71 128.69C1063.71 107.5 1051.97 89.7501 1029.35 89.7501C1006.73 89.7501 994.991 107.5 994.991 128.69C994.991 149.88 1006.73 167.63 1029.35 167.63C1051.97 167.63 1063.71 149.88 1063.71 128.69Z" fill="#191919"/>
<path d="M102.231 256.73C108.554 256.73 113.681 251.603 113.681 245.28C113.681 238.956 108.554 233.83 102.231 233.83C95.9071 233.83 90.7808 238.956 90.7808 245.28C90.7808 251.603 95.9071 256.73 102.231 256.73Z" fill="#87E64B"/>
<path d="M168.001 167.31L103.491 174.22C102.311 174.35 101.701 172.84 102.641 172.11L165.771 122.96C169.871 119.61 172.481 114.39 171.361 108.8C170.241 100.23 163.161 94.6398 154.221 95.7598L85.6308 105.8C84.4208 105.98 83.7708 104.43 84.7408 103.69L152.731 51.7798C166.151 41.3498 167.261 20.8498 154.971 8.92983C143.791 -2.25017 125.901 -1.88016 114.721 9.29984L5.16079 120.72C1.06079 125.19 -0.799204 131.15 0.320796 137.49C2.1808 147.55 12.2408 154.26 22.3108 152.4L81.3708 140.35C82.6508 140.09 83.3508 141.8 82.2408 142.5L16.7108 184.44C8.5108 189.66 4.7908 198.97 7.3908 208.29C10.0008 220.59 22.3008 227.67 34.2208 224.69L132.171 200.56C133.271 200.29 134.081 201.57 133.371 202.45L118.071 221.33C113.971 226.55 120.681 233.63 126.271 229.53L176.581 188.17C185.521 180.72 179.561 166.18 168.011 167.3L168.001 167.31Z" fill="#87E64B"/>
</svg>
